<?xml version="1.0" encoding="UTF-8"?>
<svg id="Camada_1" data-name="Camada 1" xmlns="http://www.w3.org/2000/svg" viewBox="0 0 512 512">
  <path d="m393.61,367.35c1.04,1.04,1.48,1.89,2.05,1.99,10.94,1.9,20.43,7.76,30.15,12.31,13.93,6.52,28.15,13.82,36.18,28.4.74,1.34,6.48,16.14,6.42,17.64-.29,7.25,1.43,13.98,3.87,20.83,1.44,4.02.26,8.97.26,13.73H41.69c-.68-.68-1.43-1.43-2.57-2.57-.38-2.95.23-5.78,1.3-9.23,1.44-4.64,2.06-10.07,2.32-15.02,1.09-21.38,12.4-35.42,30.51-44.72,10.53-5.4,21.05-10.9,32.71-13.94,4.96-1.29,9.32-4.87,14.41-7.65-.81-2.67-2-5.49-2.45-8.41-.43-2.78.12-5.7-.13-8.53-1-11.46,3.59-20.6,11.54-28.36,5.66-5.52,10.26-11.9,12.67-19.32,2.55-7.86,6.54-15.94,1.8-24.47.12-12.11-6.84-22.14-9.73-33.36-2.34-9.09-5.75-17.94-5.65-27.63.13-12.03,4.05-23.14,7.56-34.31,4.24-13.52,8.68-27.03,14.14-40.08,2.81-6.71,5.38-13.69,7.19-20.46,2.64-9.86,7.68-18.27,11.88-27.2,6.96-14.8,17.1-27.14,30.83-36.13,5.2-3.41,11.1-5.81,16.84-8.31,1.8-.78,4.13-.26,6.19-.54,2.98-.42,6.24,1.2,8.99-1.69.77-.81,3.95-.69,4.75.18,2.15,2.34,4.61,1.44,6.93,1.49,4.12.09,8.2-.08,11.95,2.17,3.67,2.2,7.86,1.75,11.91,2.29,8.32,1.11,16.59,2.77,24.8,4.57,3.5.77,7.62,1.6,10,3.91,2.95,2.86,6.78,2.39,9.99,4.78,11.62,8.64,21.77,18.72,29.53,30.61,4.02,6.17,9.06,11.63,12.52,18.23,4.62,8.81,9.76,18.17,9.32,28.24-.34,7.59,3.56,14.86,2.11,22.63-.11.57.24,1.33.58,1.87,2.84,4.49,5.65,8.94,7.61,13.95,1.8,4.6,4.23,8.95,6.77,14.21.93,4.04-2,9.61,2.14,14.28-3.55,6.05-1.28,12.88-2.3,19.29-.99,6.23-3.09,12.28-5.07,19.79-.48.32-2.25,1.52-3.03,2.04-.86,4,.67,6.83-1.76,9.35-4.29,4.44-2.72,10.85-4.48,16.24-1.64,5.03-2.21,11.75,1.65,17.12.42,10.6,7.01,18.04,13.43,25.39,4.51,5.16,8.65,10.14,10.84,16.95.89,2.76,1.26,5.29,1.32,7.95.17,6.69.06,13.4.06,19.55Z"/>
</svg>