<?xml version="1.0" encoding="UTF-8"?>
<svg id="Camada_1" data-name="Camada 1" xmlns="http://www.w3.org/2000/svg" viewBox="0 0 512 512">
  <path d="m447.67,471.97H67.34c-2.72-29.74-5-59.28-.29-88.62,2.86-5.12,5.69-9.99,8.33-14.97,4.33-8.19,11.64-13.09,19-18.16,8.45-5.82,18.01-8.04,27.61-10.89,8.87-2.63,17.93-4.76,26.79-7.35,8.24-2.41,16.66-4.37,24.84-7.24,6.54-2.29,13-4.72,19.32-7.56,1.51-.68,3.21-.92,6.93-1.94.49-.58,2.02-3.11,4.18-4.83,7.69-6.09,9.24-14.85,10.08-23.61.71-7.41.15-14.95.15-22.95-13.99-19.49-24.06-41.33-30.63-65.23h-8.88c-2.61-7.62-5.55-14.68-7.39-22.01-1.82-7.27-3.72-14.73-1.7-22.36,2.42-.75,4.92-1.53,6.82-2.12.65-1.53,1.13-2.14,1.13-2.75.04-15.67.38-31.36-.1-47.02-.29-9.52,3.51-17.72,6.61-26.18,3.3-9,9.58-16.17,17.07-21.64,6.6-4.82,14.37-8.34,22.56-9.82,8.3-1.5,16.32-4.55,24.93-4.42,8.55.13,17.2-.79,25.62.24,10.27,1.25,21.02,2.54,30.3,6.66,8.22,3.64,15.62,10.13,20.6,18.48,3.7,6.21,6.93,16.49,8.66,22.09,6.16,19.84,3.51,40.14,4.11,60.27.04,1.42-.03,2.85.03,4.27.01.28.36.56.65.98,2.93,1.22,7.2-1.28,10.03,4.45.24,13.21-4.09,26.72-10.35,40.23-2.92.31-5.59.6-9.14.99-7.85,21.39-14.16,43.98-29.45,62.66-1.55,14.9,1.84,29.76,4.47,45.21,5.25,5.49,10.56,12.05,18.85,14.62,10.42,3.24,20.6,7.13,31.24,9.81,9.88,2.49,19.18,7.27,29.06,9.68,11.76,2.87,22.47,7.74,32.85,13.66,7.04,4.01,14.49,7.32,20.02,13.69,6.42,7.39,9.25,15.9,11.02,25.44,1.99,10.79.17,21.83,2.29,32.21,3.08,15.14.38,30.16,2.12,46.03Z"/>
</svg>