<?xml version="1.0" encoding="UTF-8"?>
<svg id="Camada_1" data-name="Camada 1" xmlns="http://www.w3.org/2000/svg" viewBox="0 0 512 512">
  <path d="m167.3,275.33c-4.64-9.3-9.25-17.13-16.04-23.58-6.6-6.27-6.34-16.69-.02-23.32,1.72-1.8,3.52-3.53,5.02-5.03,1.55-4.66-.27-8.79-2.73-11.7-6.79-8.05-12.41-16.75-17.27-26.03-.63-1.2-1.96-2.04-3.07-3.15v-17.18c3.31-4.04,6.19-9.09,10.44-12.32,4.59-3.48,2.99-10.18,8.7-12.76v-28.66c-4.92-6.18,1.88-12.35,0-18.53,5.1-6.67,5.89-15.32,10.8-22.3,5.33-7.57,11.39-14.61,18.58-19.8,8.22-5.93,17.24-11.82,28.59-10.81,5.65.5,11.4-.1,17.08.14,4.88.21,9.8,0,14-2.33,3.95-2.19,7.92-1.96,12.01-1.99,6.77-.05,13.53-.01,20.3-.01,13.23,0,12.98.63,27.35,6.19,9.34,3.61,18.29,7.79,26.58,13.16,11.81,7.65,21.73,17.32,27.8,30.37,2.42,5.2,4.1,10.67,4.22,16.39.22,10.32.05,20.65.07,30.98.01,6.57,2.14,12.05,6.66,17.54,3.05,3.71,5.99,7.52,9.09,11.18,3.63,4.29,4.49,9.35,3.13,14.45-2.07,7.72-5.35,14.86-10.24,21.46-2.63,3.55-7.33,6.59-6.49,12.19-5.08,7.63-1.44,13.53,3.81,19.08,1.47,1.55,3.02,3.03,4.63,4.64v12.76c-5.24,6.56-11.24,12.69-16.8,19.2-4.67,5.47-6.46,12.32-8.58,18.87-1.64,5.06,1.67,9.8,3.13,14.61.56,1.83.76,3.76,1.2,6.05-2.11.13-3.47.22-4.74.3-3.85-2.97-7.61-5.87-10.99-8.48-3.8,2.92-7.34,5.62-11.02,8.45-1.07-.99-2.04-1.89-2.99-2.77,1.6-4.54,4.23-8.79,3.78-14.41-9.01-.04-14.15,9.87-24.15,8.29,2.63-5.43,4.89-10.11,7.67-15.86-1.28-.57-2.94-1.31-4.72-2.1-.73.8-2.38,2.61-4.37,4.79,0,4.77-.01,10.09,0,15.42,0,1.34,3.54,10.83,4.37,12.08,2.78,4.19,4.91,9.04,8.43,12.46,12.47,12.1,26.72,21.11,44.07,25.11,5.14,1.18,10.2,1.07,15.17,2.03,6.12,1.18,12.04,3.52,18,5.47,3.44,1.13,7.39,1.76,10.07,3.91,4.98,3.98,9.97,8.38,13.51,13.59,3.64,5.36,6.67,11.66,7.96,17.96,1.79,8.75,2.16,17.87,2.31,26.84.32,19.17.1,38.35.1,57.87H90.68c-.1-2.33-.32-5.03-.32-7.73-.03-21.01.14-42.03-.13-63.04-.06-4.94.61-9.66,2.39-14.02,2.12-5.17,3.16-10.59,5.99-15.72,7.55-13.7,20.12-19,33.77-23.08,3.85-1.15,7.97-2.19,11.91-2.02,4.32.19,8-1.49,11.94-2.36,14.67-3.24,28.15-8.77,38.72-20.05,5.88-6.27,12.12-12.06,16.05-20.06,2.04-4.15,3.6-7.92,3.39-12.52-.19-4.24-.04-8.49-.04-13.07-2.54-1.56-5.08-3.11-7.67-4.7-4.28,7.04,4.74,11.65,3.16,18.79-8.37,1.69-12.47-8.45-20.62-7.92-2.04,5.4,1.1,9.53,2.6,12.17-.82,2.26-1.44,4-2.03,5.63-4.99-3.74-8.78-6.57-12.74-9.54-4.01,3.44-7.05,8.44-13.35,8.49-2.21-5.79,2.03-9.63,3.31-14.29,1.37-4.96.31-10.6.31-15.67Z"/>
</svg>