<?xml version="1.0" encoding="UTF-8"?>
<svg id="Camada_1" data-name="Camada 1" xmlns="http://www.w3.org/2000/svg" viewBox="0 0 512 512">
  <path d="m168.28,230.24c0-1.48.12-1.89-.02-2.19-5.2-11.06-4.31-22.86-4.26-34.56.02-4.99,0-9.97,0-15.78,2.01-1.62,4.48-3.61,7.01-5.64-1.81-11.3-3.08-22.13-5.4-32.73-1.43-6.57-3.66-13-3.7-19.78-.06-12.04,6.35-19.35,18.38-21.61,2.55-.48,5.01-1.45,7.23-2.1v-12.41c1.87-4.25,2.92-7.42,4.57-10.25,6.93-11.86,17.03-18.91,30.98-20.15,4.01-.36,7.94-1.51,11.94-2.04,4.02-.54,8.33,1.11,12.02-2.07.71-.61,3.27-.33,3.88.43,2.02,2.49,4.57,1.39,6.89,1.58,13.19,1.08,25.27,4.78,36.95,11.54,6.59,3.81,13.05,7.9,19.62,11.77,6.34,3.73,12.08,8.59,18.65,11.78,3.58,1.74,7.25,3.25,10.48,5.58,2.43,1.75,4.68,3.76,6.71,5.42-1.93,8.67-3.16,16.67-5.57,24.28-2.43,7.65-.18,15.52-2.84,23.35-2.61,7.65-2.18,16.33-3.1,24.62,2.86,2.48,5.39,4.66,7.91,6.84.54-.28,1.07-.56,1.61-.83.59,4.3,1.52,8.58,1.69,12.89.28,7.11-.17,14.25.14,21.36.37,8.51-3.86,15.45-7.22,22.67-.85,1.82-3,4.43-4.42,4.34-5.85-.35-7.6,3.63-9.77,9.4.17,4.75-.56,10.92-3.34,17.1-2.26,5.02-1.23,11.14-5.12,16.07-4.56,5.78-6.92,13-12.35,18.42-4.05,4.04-7.95,9.05-2.81,15.22,1.06,17.43,14.25,26.19,26.55,34.49,7.39,4.99,17.39,5.94,25.88,9.51,16.71,7.04,34.72,10.61,50.79,19.22,3.55,1.9,7.01,4.32,9.8,7.19,6.68,6.91,15.15,12.44,18.21,22.32,5.44,4,4.62,10.9,7.3,16.23,2.76,5.5,3.72,33.12,2.56,38.38-.26,1.19-1.78,2.1-2.85,3.28H65.66c0-7.43.58-14.86-.16-22.16-.75-7.47,3.41-14.19,2.39-20.18,2.43-5.67,4.91-10.07,6.17-14.79,1.35-5.05,5.23-7.87,8.01-11.7,2.68-3.7,6.08-6.52,9.13-9.76,3.2-3.39,6.79-6.32,10.94-7.68,4.74-1.56,7.09-9.14,13.19-4.91,1.84-1.84,3.09-3.09,3.64-3.64,4.01-1.3,7.14-2.38,10.31-3.33,12.63-3.81,24.84-8.88,37.44-12.76,17.77-5.46,30.86-15.72,38.18-33.24,1.84-4.39,2.55-8.93,3.81-13.36,1.05-3.72-1.27-7.09-3.9-10.03-2.73-3.04-5.05-6.45-7.61-9.64-6.07-7.58-8.02-16.67-9.73-25.89-.86-4.65-1.49-9.48-2.73-13.87-1.11-3.93-1.19-10.58-9.19-10.06-2.47.16-5.24-4.32-7.28-6.15Z"/>
</svg>