<?xml version="1.0" encoding="UTF-8"?>
<svg id="Camada_1" data-name="Camada 1" xmlns="http://www.w3.org/2000/svg" viewBox="0 0 512 512">
  <path d="m76.51,457.01c0-6.39-.75-12.52.17-18.39,1.49-9.51,4.65-18.67,10.11-26.75,7.58-11.21,16.52-20.85,29.75-25.72,3.4-1.25,6.21-4.1,8.95-5.98,1.73-14.85-5.43-26.64-9.99-40.39-.74-4.45-.27-10.97-2.99-15.64-3.69-6.32-.68-11.16,2.25-14.62,5.51-6.51,11.09-13.32,19.52-16.93,5.66-2.42,7.06-8.66,8.34-14,1.47-6.13-.69-12.15-3.03-17.87-1.12-2.74-2.5-5.38-3.75-8.06-1.25-2.69-3.4-5.34-3.52-8.08-.15-3.56.56-7.6,2.25-10.7,2.56-4.67,4.49-9.81,8.79-13.55,2.46-2.14,3.97-5.4,5.82-8.21,1.3-1.97,2.45-4.03,4.76-7.84.5-1.46-2-5.52,1.45-8.92,1.07-1.06.96-4.5.08-6.15-2.78-5.22-1.29-11.24-3.95-16.57-2.07-4.16-2.85-9.02-2.42-13.99.42-4.95.25-9.97.06-14.95-.52-13.71,4.95-25.22,11.39-37.01,6.6-12.09,16.28-21.17,26.3-29.43,8.72-7.19,18.59-14.31,30.86-15.42,6.57-4.86,14.77-4.07,22.13-5.74,7.77-1.77,16.24-1.02,24.37-.58,22.69,1.23,42.8,9.14,61.11,22.83,9.87,7.38,17.32,16.33,23.92,26.38,2.74,4.17,8.02,17.54,9.55,22.77,2.2,7.49,4.77,14.84,4.21,22.83-.28,4.07.03,7.97-1.87,12.07-1.43,3.1-.12,7.33-2.34,10.79-1.21,1.88-1.85,4.3-2.14,6.55-.36,2.8-.09,5.69-.09,8.54v14.51c.63,6.3,6.71,7.91,9.35,12.39,2.55,4.34,6.72,7.73,9.14,10.4,2.01,6.94-1.63,12.96,2.65,16.98-.91,3.96-1.66,7.22-1.91,8.31-3.25,6.98-5.63,12.06-8.41,18.04v11.77c2.34,3.17,5.55,6.14,6.97,9.81,1.68,4.31,6.02,4.96,8.46,8.04,2.42,3.05,5.03,6.48,8.35,8.15,3.95,1.98,4.18,6.85,8.78,8.23-3.46,11.18-2.28,22.85-7.82,33.52-3.12,6.01-5.76,12.74-5.79,20.08-.02,3.56-1.65,7.12-2.63,10.97,7.12,4.04,13.91,7.58,20.39,11.63,13.12,8.19,23.17,21.72,27.12,36.3,2.37,8.74,5.29,17.58,4.37,26.78l-2.78,2.78H76.51Z"/>
</svg>