<?xml version="1.0" encoding="UTF-8"?>
<svg id="Camada_1" data-name="Camada 1" xmlns="http://www.w3.org/2000/svg" viewBox="0 0 512 512">
  <path d="m424.37,465.66H91.43c-2.97-1.72-4.91-5.33-3.11-7.74,3.61-4.86-.32-11.21,4.05-15.5-1.81-6.01,3.25-10.11,4.69-15.21,1.38-4.87,6.19-8.79,9.54-13.09,6.28-8.06,14.93-12.88,24.08-16.68,7.9-3.29,16.11-5.84,24.22-8.63,5.62-1.93,11.19-3.96,16.86-5.76,5.34-1.7,10.91-3.27,15.86-5.53,8.21-3.74,15.26-9.79,20.18-17.74,4.81-7.77,6.83-16.49,8.82-25.39-7.56-6.81-14.28-14.16-19.06-23.12-1.27-2.38-8.64-19.27-8.97-21.93-.92-7.24-3.11-12.82-10.27-17.22-7.46-4.58-11.57-12.47-13.74-21.91-1.76-7.66-2.42-15.74-5.64-23.23-1.2-2.78,1.02-7.04,1.46-9.39,3.73-2.86,6.42-4.92,9.63-7.38-1.67-6.19-4.24-12.22-4.73-18.42-.54-6.88-2.47-13.48-2.83-20.45-.32-6.29-1.86-11.95-.25-18.75,1.44-6.06,3.29-12.63,2.89-18.22,3.53-6.25,5.94-12.34,9.94-17.09,3.93-4.67,9.47-7.99,14.56-11.4,3.37-2.07,6.73-4.15,9.79-6.03-1.05-9.87-2-18.81-2.76-26.02,4.79-13.02,14.94-17.38,24.58-22.25,3.62-1.83,8.45,1.08,11.71-2.69,10.85.73,21.44-4.17,32.21-1.96,5.84,1.2,11.93,3.14,17.54,3.54,6.47.46,11.94,3.05,17.3,5.15,12.86,5.05,20.4,22.27,15.5,32.21-1.56,3.16-1.7,7.02-2.71,11.55,3.8,2.49,8.09,5.59,12.64,8.24,9.83,5.72,16.61,13.81,20.29,24.58.63,1.86,1.78,3.54,2.73,5.38.86,5.21,2.08,10.54,2.52,15.93.44,5.31.37,10.7.01,16.02-.29,4.36-1.82,8.67-1.92,13.02-.1,4.52-.17,8.98-2.32,12.98-2.99,5.56-1.82,11.4-2.09,16.39,3.28,2.47,5.99,4.52,8.58,6.47-.21,8.23-.66,15.73-3.21,23.57-2.2,6.79-4.1,14.09-5.92,22.67-5.61,4.79-12.19,10.42-19.03,16.27,3.26,7.7-3.52,13.34-4.47,20.5-.8,6.07-5.77,11.83-9.63,17.21-3.99,5.56-8.86,10.49-13.36,15.72-.68,10.6,3.79,19.79,9.25,28.17,5.74,8.8,14.87,14.66,24.69,17.34,6.17,1.68,11.68,4.73,17.8,6.21,5.8,1.4,11.38,3.33,16.78,5.94,2.34,1.13,5.47.61,7.83,1.71,5.98,2.79,12.72,4.02,17.76,8.87,1.27,1.22,3.73,1.22,6.89,2.15,5.02,6.03,11.14,12.71,16.45,19.98,3.07,4.2,2.49,10.39,6.54,14.35.9,8.57,1.79,17.14,2.79,26.64Z"/>
</svg>