<?xml version="1.0" encoding="UTF-8"?>
<svg id="Camada_1" data-name="Camada 1" xmlns="http://www.w3.org/2000/svg" viewBox="0 0 512 512">
  <path d="m205.69,307.38c-5.33-8.9-12.19-17.5-15.88-27.29-3.71-9.83-7.87-19.97-7.69-30.27-4.11-6-9.63-9.65-13.43-15.4-5.12-7.76-6.73-16.09-7.67-24.63-.89-8.08-.19-16.33-.19-23.51,1.13-2.34,1.85-3.82,2.7-5.57,2.34-1.1,5.03-2.36,7.83-3.67.05-.96.55-2.3.09-2.98-2.57-3.72-1.49-7.99-2.23-11.96-.64-3.47-3.34-6.57-3.94-10.04-.72-4.15.35-8.6-.29-12.77-.98-6.44,1.43-12.38,2.94-18.15.89-3.42.86-6.71,1.72-11.04.7-.44,2.2-1.37,3.07-1.91,2.01-12.12,6.65-21.04,17.14-27.03,7.64-4.36,13.7-11.39,21.11-16.26,11.86-7.81,24.59-13.7,39.4-13.22,2.92.09,5.88-.96,9.47-1.6,6.44,3.81,14.36.55,21.55,1.9,2.48,1.42,4.64,3.27,7.13,3.98,7.53,2.15,12.64,7.74,16.63,13.49,3.04,4.38,7.01,7.64,8.82,10.13,5.22,2.61,9.34,3.71,12.16,6.25,11.87,10.71,18.23,24.19,18.54,40.32.07,3.92.01,7.83.01,11.75,0,6.77.35,13.56-.1,20.29-.41,6.11-1.71,12.16-2.52,17.63,3.54,2.77,6.43,5.04,9.58,7.52.54,9.11,1.06,18.08,1.59,27.05-4.74,6.63-3.82,15.2-8.22,22.3-4.05,6.54-10.5,10.28-14.77,16.76-1.56,19.81-8.67,37.88-21.92,54.43-1.49,16.51,8.32,28.62,20.64,38.3,5.88,4.62,13.66,7.57,21.75,9.28,6.55,1.39,12.98,4.59,19.45,7.02,7.75,2.91,15.68,5.2,23.48,7.84,8.35,2.82,16.49,6.59,24.05,11.6,15.49,10.27,23.85,25.2,29.6,42.13,1.55,4.56,2.37,9.17,2.22,14.07-.28,9.18-.08,18.38-.08,27.84H65.42c-.79-.79-1.8-1.8-2.93-2.93,0-6.98.08-14.09-.02-21.2-.12-8.6,3.65-16.34,5.33-24.55,1.64-8.01,5.92-14.98,11.94-20.65,10.96-10.33,11.36-15.75,33.17-22.66,5.6-1.77,10.55-5.73,16.18-7.27,11.5-3.16,22.51-7.56,33.67-11.62,4.96-1.8,10.2-2.97,14.9-5.28,5.11-2.51,8.6-7.65,14.15-9.7,3.74-7.37,10.16-13.29,11.8-21.83.37-1.92,1.12-3.77,2.07-6.88Z"/>
</svg>