<?xml version="1.0" encoding="UTF-8"?>
<svg id="Camada_1" data-name="Camada 1" xmlns="http://www.w3.org/2000/svg" viewBox="0 0 512 512">
  <path d="m20.8,461.18c0-16.73-.09-33.07.04-49.42.06-7.99,4.08-14.71,8.03-21.23,6.33-10.47,16.7-16.49,26.53-23.09,6.1-4.1,12.75-7.15,19.43-9.89,6.37-2.61,12.43-6.2,19.46-7.3,2.13-.33,4.15-2.09,5.99-3.5,6.5-4.98,13.91-7.51,21.82-9.36,4.39-1.03,8.32-3.92,12.58-5.69,10.05-4.17,20.81-6.33,30.69-11.08,2.3-1.11,5.59-.16,8.03-.16,7.27-5.49,16.78-6.56,22.15-13.22,2.85-15.22-1.94-29.23-4.33-44.07-.96-.96-2.48-2.48-4.37-4.37h-8.55c-2.65-2.65-4.91-4.91-7.29-7.3-.87-3.4-1.1-7.33-2.87-10.37-1.56-2.69-4.83-4.38-8.35-7.37,0-.66-.07-2.33.01-3.98.26-4.98-6.15-7.88-3.63-13.99,1.77-4.29,1.44-9.44,2.01-13.91,2.7-2.02,5.41-4.05,8.47-6.33-1.86-8.71-3.68-17.26-5.73-26.87-3.79-6.82-6.34-15.36-9.01-23.87-2.86-9.11,1.86-17.66,1.64-25.87,7.96-15.45,14.57-31.11,27.2-42.84,12.2-11.34,26.8-18.69,44.45-25.01,16.46,0,35.36.55,54.2-.23,9.46-.39,17.44,3.42,24.81,7.34,11.42,6.07,22.04,13.87,30.85,23.77,5.59,6.28,18.64,25.96,20.98,34.08,1.49,5.17,2.39,10.7,2.37,16.06-.02,5.39,2.26,11.27-1.93,16.23,1.16,5.87-2.39,10.46-4.68,15.15-3.78,7.74-4.35,16.08-6.07,24.23-.48,2.25-1.25,4.45-2.17,7.63.95.95,2.28,2.51,3.84,3.81,8.19,6.8,8.2,7.74,5.57,18.88-.75,3.19-1.21,6.7-4.4,8.92-.91.63-1.1,2.33-1.57,3.56-1.62,4.32-1.22,9.53-5.53,12.68.79,4.83-4.02,7.67-4.48,12.89-4.52,1.06-9.38,2.19-15.04,3.52-1.13,2.62-3.71,5.93-3.76,9.28-.1,7.31-3.82,14.11-2.49,21.58.39,2.2-.06,4.49-1.09,6.96-2.67,6.37.31,10.62,6.42,14.69,4.92,3.27,11.11,2.53,15.63,6.23,10.29.46,18.81,6.18,28.15,9.45,1.88.66,3.79,1.23,6.04,1.95,1.18,2.1,1.4,4.92,5.52,5.91,11.54,2.8,22.09,8.56,33.24,12.54,14.59,5.21,28.37,12.36,43.06,17.38,4.28,1.47,7.63,5.53,11.57,8.16,13.92,9.3,20.27,17.53,24.73,32.34.67,2.21,1.76,4.36,2.05,6.61.36,2.8.09,5.69.09,8.54v37.14c-.95.95-1.71,1.71-2.83,2.83H20.8Z"/>
</svg>