<?xml version="1.0" encoding="UTF-8"?>
<svg id="Camada_1" data-name="Camada 1" xmlns="http://www.w3.org/2000/svg" viewBox="0 0 512 512">
  <path d="m29.53,414.07c1.76-4.49,3.21-8.16,5.11-12.98,3.83-3.83,8.79-8.47,13.36-13.45,4.71-5.13,10.47-9.01,16.5-11.88,17.54-8.35,35.56-15.58,54.01-21.88,8.09-2.76,16.41-5.02,24.34-8.27,7.92-3.24,15.57-7.26,23.67-9.92,7.71-2.53,14.88-5.63,21.29-10.65,1.44-1.13,4.01-.73,5.66-1.7,1.78-1.06,3.1-2.9,4.3-4.09,1.39-15.26-.31-29.73-5.99-43.31-5.14-.95-9.75-1.8-14.45-2.66-2.02-8.19-6.87-14.61-9.69-22.11-2.78-7.38-4.81-15.08-8.13-21.35.42-8.12,8.04-10.05,10.57-15.66-4.98-4.02,1.03-11.16-4.11-15.24-.06-5.71-2.55-11.74-6.53-14.03-4.55-2.62-6.89-9.44-13.7-8.12-2.83-5.18-5.65-10.37-8.48-15.55.31-.16.62-.33.93-.49-2.03-2-4.06-4-6.57-6.48,2.21-1.48,4.27-2.87,6.87-4.61-3.26-4.53-4.04-9.23,2.48-12.6-1.02-2.88-2.22-5.32-2.7-7.89-.44-2.36-.09-4.86-.09-6.66-2.55-1.61-4.53-2.86-6.75-4.26,5.91-2.15,8.77-7.23,12.84-10.54-1.49-3.01-2.93-5.9-4.75-9.56,3.45-.29,6.12-.51,8.76-.73,1.61-3.18-1.15-7.53,3.97-10.04h5.87c1.37-1.38,2.37-2.4,3.37-3.41-.72-1.04-1.45-2.08-2.1-3.03,2.32-8.12,11.68-1.31,14.35-8.13,1.85-3.01-1.2-7.93,3.4-10.84,4.35,2.55,9.09,1.09,12.98,1.52,1.89-2.62,3.41-4.72,4.92-6.81,2.36,1.17,4.12,2.04,6.2,3.08.58-1.67,1-2.89,1.56-4.48h9.08c.86-1.8,1.56-3.25,2.61-5.45,3.86,4.1,7.9,3.98,11.39.44,1.65,1.15,2.74,1.91,4.36,3.04,2.51-2.27,5.01-4.53,7.1-6.42,2.3,2.86,4.59,5.7,6.87,8.54,3.6-1.86,6.52-3.38,10.29-5.33.65,1.58,1.22,2.94,1.85,4.48,2.91.14,6.07,1.69,9.31-2.18,1.03,1.85,2.01,3.61,2.98,5.36,3.2-.89,5.39-1.5,8.21-2.29,5.37-.67,11.48-1.43,18.22-2.27,2.4,1.62,5.46,3.69,9.16,6.18,1.73-2.32,3.56-4.77,5.78-7.76,1.94,3.09,3.19,5.07,4.78,7.6h8.45c6.7,10.71,14.19,17.15,23.13,23.36,1.93,4.49,3.75,8.73,5.42,12.63,2.58.28,4.26.47,6.09.67,3.14,4.28,4.91,9.98,11.24,11.21-.81.89-1.49,1.64-2.5,2.76,1.03,2.17,2.16,4.54,3.29,6.91,2.43.14,4.84.27,7.36.42,1.01,5.97-.61,11.91,2.29,17.5,1.16,2.25,1.38,6.67-.04,8.25-3.86,4.28-.48,7.58.53,11.52-5.39,3.06-10.25,6.48-11.51,13.11-.21,1.09-1.84,2.09-3.02,2.8-10.69,6.44-17.32,15.91-20.94,27.69-.29.94-1.02,1.78-1.14,2.72-.66,5.05-1.19,10.12-1.76,15.13,3.29,3.29,6.8,6.78,9.73,9.71,2.06,8.31-2.52,14.11-5.45,19.69-2.47,4.7-5.08,9.76-6.35,14.44-1.79,6.61-5.65,10.78-10.27,15.58h-9.44c-6.93,14.67-6.79,30.12-6.34,46.29,7.55,1.68,14.33,5.74,21.05,9.94,8.75,5.47,18.59,8.44,28.17,11.98,7.11,2.63,14.28,5.09,21.4,7.68,14.24,5.19,28.55,10.25,42.49,16.11,6.6,2.78,14.43,3.6,19.55,9.57,10.42,2.39,16.93,10.24,23.73,17.44,7.89,8.36,12.12,18.55,12.35,30.1.22,11.4.15,22.8-.04,34.2-.03,2.2-1.15,4.39-1.76,6.54H29.53v-51.08Z"/>
</svg>