<?xml version="1.0" encoding="UTF-8"?>
<svg id="Camada_1" data-name="Camada 1" xmlns="http://www.w3.org/2000/svg" viewBox="0 0 512 512">
  <path d="m446.36,460.36c-1.51,1.51-2.27,2.27-2.92,2.92H65.82c0-11.61-.77-23.01.23-34.26.89-9.92,5.04-19.12,10.41-27.69,7.81-12.47,18.14-21.99,31.56-28.03,4.8-2.16,9.65-5.17,14.67-5.62,5.63-.51,9.52-4.57,15.28-4.97,5.65-.4,11.07-3.94,16.61-6.02,7.71-2.89,15.66-5.25,23.1-8.72,5.11-2.38,9.86-5.86,14.19-9.54,7.65-6.51,11.44-15.62,15.01-24.72.96-2.46,1.5-5.08,2.33-7.96-2.79-5.53-5.56-11.07-10.07-16-4.88-5.34-7.15-12.43-9.65-19.44-3.84-10.74-2.96-22.61-9.16-33.19-1.18-.08-2.86-.18-4.55-.29-3.02-3.02-6.05-6.05-9.1-9.1-.84-4.96-1.39-10.03-2.58-14.94-4.01-16.64-2.94-28.1,3.93-41.65-.64-5.08-1.2-9.44-1.74-13.79-.72-5.76-.17-12.09-2.44-17.15-3.29-7.34-1.84-14.59-1.47-21.68.24-4.53,3.68-9.13,6.42-13.21,2.15-3.19,5.43-5.61,8.16-8.33.3-9.42-1.27-18.92,2.72-28.43,5.76-5.53,11.09-12.57,19.9-15.13,4.55-1.25,9.51,1.13,14.21-1.74,4.13-2.52,9.84,1.43,13.77-2.86,12.89.08,25.89-1.07,38.49,2.57,6.85,1.98,13.66,4.21,20.84,3.76,6.02-.37,10.73,1.69,14.65,6.01,3.56,3.92,7.63,6.8,13.45,7.18,4.81,3.53,8.02,8.65,10.39,14.46,2.88,7.09,8.48,11.19,15.58,13.49.5,1.22.71,2.72,1.56,3.6,4.03,4.19,5.54,9.41,5.39,14.86-.44,15.39-.95,30.8-2.29,46.13-.37,4.27-2.38,8.49-1.87,12.32,2.23,3.29,4.13,6.09,6.36,9.37-.41,17.23,3.23,35.54-10.15,52.08-9.89,1.31-12.31,10.56-13.09,19.51-1.12,12.8-6.51,23.7-12.54,34.42-2.84,5.05-7.15,9.27-11.21,14.39v10.93c2.4,5.01,4.24,9.27,6.44,13.33,2.74,5.06,5.23,10.46,11.45,12.34,8.39,9.18,20.46,10.64,31.15,15.12,7.96,3.34,16.2,5.63,24.3,8.44,8.09,2.81,16.18,5.77,24.05,9.02,7.35,3.03,14.45,7.27,20.17,13.3,6.61,6.97,14.06,13.12,17.21,22.83,2.79,8.61,7.11,16.67,6.49,26.24-.27,4.27,1.53,8.64,1.89,13.01.36,4.25.08,8.55.08,12.83Z"/>
</svg>