<?xml version="1.0" encoding="UTF-8"?>
<svg id="Camada_1" data-name="Camada 1" xmlns="http://www.w3.org/2000/svg" viewBox="0 0 512 512">
  <path d="m244.47,91.93c-10.6-11.42-9.38-24.99-8.79-37,4.36-12.05,12.53-19.19,22.82-25.42,2.94-.47,6.89-1.09,10.86-1.72,5.18.57,10.6,1.17,16.62,1.83,8.85,5.88,17.75,12.78,22.19,25.76-1.31,6.68,2.18,15.45-1.96,23.96-3.69,7.58-6.82,15.34-15.09,19.31v4.62c7.58,4.91,15.25,10.02,21.74,16.86,9.79,10.3,15.39,22.51,18.95,36.03,2.72,10.33,3.34,21,1.65,31.13-1.57,9.43-.52,18.82-1.99,28-1.14,7.13-1.83,14.59-5.17,21.31-.73,1.47-.84,3.25-1.52,6.05-2.4,1.76-5.68,4.18-9.6,7.06-4.71,19.89-13.33,38.77-26.61,57.3.77,9.65.82,20.83,2.82,31.66,1.54,8.37,7.08,14.69,15.88,17.55,11.32,3.67,22.59,7.47,33.96,10.99,5.17,1.6,11.47,1.47,15.63,6.05,5.98-1.71,10.42,2.77,15.2,4.61,10.11,3.89,19.5,9.66,29.19,14.66,3.54,6.8,9.86,11.93,11.73,19.73,1.03,4.29,2.54,8.35,2.23,13.02-1.14,17.57,3.63,34.94,2.06,52.55-.18,2.04-.02,4.1-.02,6.37H97.41c-3.01-3.87-3.04-8.25-3.01-12.78.12-16.39-.12-32.78.14-49.17.08-5.06,1.13-10.14,2.16-15.12.31-1.49,2.31-2.55,3.09-4.05.75-1.45.92-3.2,1.8-6.55,2.38-2.24,6.1-5.53,9.58-9.06,3.64-3.69,7.52-6.55,12.56-8.44,10.23-3.83,20.24-8.08,31.08-10.16,8.48-1.62,16.87-3.88,25.13-6.39,8.19-2.49,16.38-5.37,24.15-8.76,10.54-4.6,15.69-14.16,16.44-25.69.32-4.97.05-9.97.05-15.33-2.99-4.48-5.9-9.41-9.36-13.91-6.58-8.56-10.91-18.3-13.91-28.43-1.6-5.39-5.31-9.91-5.25-16.16.04-4.33-3.99-7.61-9.21-8.46-.29-2.02,0-4.02-.84-5.21-7.31-10.32-6.54-22.09-6.29-33.74.16-7.65-3.03-14.84-2.33-22.64.69-7.78.21-15.66.14-23.5-.11-11.87,4.74-22.08,10.53-31.98,6.81-11.65,17.27-19.5,28.55-26.16,4.44-2.62,9.91-3.64,15.02-4.94,4.24-1.08,8.69-1.34,12.97-2.31,1.2-.27,2.12-1.76,3.87-3.32Z"/>
</svg>