<?xml version="1.0" encoding="UTF-8"?>
<svg id="Camada_1" data-name="Camada 1" xmlns="http://www.w3.org/2000/svg" viewBox="0 0 512 512">
  <path d="m268.19,52.67c9.38,3.55,16.15,6.11,23.35,8.84.97-.73,2.02-1.53,2.89-2.19,4.36.83,8.67,1.65,13.67,2.6.91.91,2.43,2.43,3.94,3.94-.25.15-.5.3-.75.45,2.04,3.42,4.07,6.84,5.88,9.87,8.71-.24,15.99.9,21.24,7.59v8.01c5.21,4.19,8.48,9.11,10.75,15.1,3.34,8.82,4.82,17.72,4.24,27.12-.39,6.39-.17,12.82-.04,19.23.08,3.82-.23,7.43-2.13,10.89-2.97,5.42-1.94,11.43-2.23,17.25-.15,3,1.21,6.4-2.01,9.04,1.99,2.98,4,5.99,6.34,9.49.54,6.58-1.85,13.26-3.66,20.19-1.98,7.57-2.32,15.56-3.58,24.79-3.15,2.46-7.46,5.81-11.28,8.79-2.13,9.46-2.32,18.58-5.47,27.29-3.18,8.81-9.88,15.11-14.5,23.06,0,5.49-1.29,11.59.31,16.79,2.23,7.26,1.36,14.42,1.94,21.63,7.13,6.82,13.21,15.25,24.39,15.9,3.81,6.46,12.54,2.86,16.88,8.25,6.28-.36,11.77,2.6,17.25,4.8,4.8,1.93,9.85,1.51,14.67,3.24,4.28,1.53,9.21,2.23,13.65,3.34,10.15,2.54,20.97,4.53,29.6,10.76,5,3.61,9.34,8.56,13.85,13.02,4.67,4.62,6.31,10.43,8.31,15.9,2.5,6.85,3.07,14.4,4.55,21.64.6,2.93,1.7,5.79,2.04,8.74.36,3.16.08,6.4.08,9.61-9.89,1.96-348.72,2.74-412.82.92.8-6.75.52-13.79,2.65-20,2.89-8.43,4.3-17.64,8.64-25.19,3.44-5.99,5.88-13.33,12.26-17.4,5.33-3.4,10.49-8.23,16.31-9.36,5.69-1.11,9.92-5.49,16.32-5.1,5,.31,10.19-2.5,15.3-3.93l49.36-14.97c2.48-4.84,8.76-3.44,12.01-7.34,1.05-1.27,3.69-1.21,5.86-1.84,2.3-2.3,5.13-4.59,7.24-7.41,1.74-2.33,3.14-5.18,3.77-8,1.12-4.96,1.83-10.05,2.17-15.12.36-5.32.08-10.68.08-16.02v-3.52c-2.47-3.01-5.05-6.18-7.66-9.33-3.7-4.44-5.7-9.58-7.48-15.08-2.47-7.6-3.04-15.68-6.24-23.04-.53-1.22-1.23-2.36-2.13-4.08-1.58-.16-3.23-.33-5.69-.57-1.09-1.39-2.62-3.33-4.55-5.79-1.43-6.23-3.81-13.34-4.46-20.6-.43-4.82-.67-9.75-2.61-13.95-1.88-4.05-1.99-7.87-1.78-12.46,2.48-1.85,5.2-3.87,8.48-6.31-2.64-5.83-1.06-13.33-5.11-19.51-.54-.82-1.38-1.79-1.31-2.63.92-11.22-4.45-22.19-2.06-33.28,3.16-14.64,5.34-29.91,17.47-40.82,3.67-3.3,6.43-7.13,6.02-10.94,9.02-16.13,25.4-18.8,41.14-25.92-1.29.16-.61-.01.07,0,8.6.21,16.96-.03,25.02-4.14,6.97-3.56,14.9-2.33,19.55-2.26Z"/>
</svg>